Coordinates
version=1
nRows=10
nColumns=22
inDegrees=yes

Units are S.I. units (second, meters, Newtons, ...)
If the header above contains a line with 'inDegrees', this indicates whether rotational values are in degrees (yes) or radians (no).

endheader
time	pelvis_tilt	pelvis_list	pelvis_rotation	pelvis_tx	pelvis_ty	pelvis_tz	hip_flexion_r	hip_adduction_r	hip_rotation_r	knee_angle_r	ankle_angle_r	subtalar_angle_r	hip_flexion_l	hip_adduction_l	hip_rotation_l	knee_angle_l	ankle_angle_l	subtalar_angle_l	lumbar_extension	lumbar_bending	lumbar_rotation
      0.01000000	     -1.64553791	     -5.64851407	     -3.24249412	     -1.75065973	      1.01233403	     -0.03017093	      2.55141474	      2.41136442	     -3.29046888	    -12.79923519	      8.39381331	      2.58632562	     -1.55666683	     -9.08331186	    -14.82991885	    -11.60668719	     12.92275411	      0.99367260	     -3.20267729	      1.83886952	     -0.45698712
      0.02000000	     -1.64423597	     -5.65051999	     -3.24316828	     -1.75065561	      1.01233202	     -0.03016263	      2.55055549	      2.41437964	     -3.28952423	    -12.80009902	      8.39286360	      2.58961051	     -1.55893028	     -9.08658566	    -14.83113352	    -11.60699825	     12.92304231	      0.99608696	     -3.20611337	      1.83164277	     -0.45974373
      0.03000000	     -1.62780508	     -5.64896525	     -3.24469403	     -1.75067883	      1.01234791	     -0.03017355	      2.54508620	      2.41118888	     -3.27488472	    -12.82051674	      8.38984046	      2.61148756	     -1.57354420	     -9.08477604	    -14.84251235	    -11.61188566	     12.92711605	      1.01558496	     -3.23156422	      1.82465122	     -0.47169375
      0.04000000	     -1.62715848	     -5.65068954	     -3.24688790	     -1.75068021	      1.01234375	     -0.03017393	      2.54512137	      2.41365418	     -3.27508778	    -12.82060762	      8.39072236	      2.61308699	     -1.57565605	     -9.08662582	    -14.84305163	    -11.61152110	     12.92764740	      1.01715285	     -3.23260874	      1.81688261	     -0.47181364
      0.05000000	     -1.62469908	     -5.65141027	     -3.24933452	     -1.75069770	      1.01234080	     -0.03017682	      2.54646676	      2.41457556	     -3.27224835	    -12.82554551	      8.39193723	      2.61555905	     -1.57862414	     -9.08750443	    -14.84533654	    -11.61060087	     12.92897735	      1.01993902	     -3.23691825	      1.80754086	     -0.47376228
      0.06000000	     -1.62380340	     -5.65259392	     -3.24969371	     -1.75071319	      1.01233746	     -0.03021268	      2.54709596	      2.41405855	     -3.27173103	    -12.82600066	      8.39207815	      2.61575489	     -1.57901887	     -9.08690534	    -14.84568982	    -11.61065661	     12.92911946	      1.02021803	     -3.23718175	      1.80664844	     -0.47411431
      0.07000000	     -1.60230726	     -5.62305451	     -3.27188894	     -1.75077000	      1.01235486	     -0.03021881	      2.54574791	      2.37958269	     -3.23965611	    -12.85754643	      8.42089374	      2.63541943	     -1.60460933	     -9.05104102	    -14.87977668	    -11.60654990	     12.93821331	      1.05183068	     -3.26710857	      1.76592721	     -0.46253648
      0.08000000	     -1.60116597	     -5.62450785	     -3.27194833	     -1.75079712	      1.01234743	     -0.03025641	      2.54620670	      2.37931673	     -3.23941962	    -12.85741174	      8.42092995	      2.63547230	     -1.60468673	     -9.05083312	    -14.87992469	    -11.60629421	     12.93817223	      1.05194066	     -3.26656666	      1.76506569	     -0.46286962
      0.09000000	     -1.59822120	     -5.62278893	     -3.26774762	     -1.75081641	      1.01234092	     -0.03028503	      2.54534585	      2.37701430	     -3.23110404	    -12.86114010	      8.42165162	      2.63655951	     -1.60874753	     -9.04821560	    -14.88426138	    -11.59994643	     12.93900445	      1.05434163	     -3.26292406	      1.75681505	     -0.47356964
      0.10000000	     -1.59427476	     -5.60683806	     -3.27077989	     -1.75084348	      1.01233631	     -0.03033221	      2.54059855	      2.35773859	     -3.21324835	    -12.85502366	      8.42897437	      2.63887456	     -1.61742667	     -9.02636038	    -14.89092591	    -11.58720246	     12.94150480	      1.06262617	     -3.26168795	      1.74087725	     -0.49319023
